<?xml version="1.0" standalone="no"?>
<!DOCTYPE svg PUBLIC "-//W3C//DTD SVG 20010904//EN"
 "http://www.w3.org/TR/2001/REC-SVG-20010904/DTD/svg10.dtd">
<svg version="1.0" xmlns="http://www.w3.org/2000/svg"
 width="219.000000pt" height="162.000000pt" viewBox="0 0 219.000000 162.000000"
 preserveAspectRatio="xMidYMid meet">

<g transform="translate(0.000000,162.000000) scale(0.100000,-0.100000)"
fill="#30a12a" stroke="none">
<path d="M870 1377 c-63 -105 -186 -316 -275 -467 -89 -151 -178 -303 -198
-338 l-37 -62 73 49 c84 57 213 123 312 161 78 30 58 4 183 239 l55 104 65
-123 65 -122 46 6 c188 26 377 29 576 9 33 -3 57 -3 54 1 -10 11 -277 63 -360
71 l-75 7 -94 166 c-52 92 -136 240 -186 329 l-91 163 -113 -193z"/>
<path d="M1178 735 c-158 -22 -255 -44 -393 -90 -341 -111 -592 -301 -711
-537 -19 -37 -34 -70 -34 -73 0 -3 69 -5 153 -5 l153 0 48 69 c89 131 251 268
413 350 132 66 388 151 404 133 7 -7 63 -110 218 -399 l93 -173 159 0 160 0
-12 23 c-7 12 -70 126 -142 252 -71 127 -142 253 -158 281 -16 28 -29 56 -29
62 0 12 137 23 405 31 l210 6 -90 22 c-183 45 -272 55 -515 59 -163 2 -265 -1
-332 -11z"/>
</g>
</svg>
