<?xml version="1.0" standalone="no"?>
<!DOCTYPE svg PUBLIC "-//W3C//DTD SVG 20010904//EN"
 "http://www.w3.org/TR/2001/REC-SVG-20010904/DTD/svg10.dtd">
<svg version="1.0" xmlns="http://www.w3.org/2000/svg"
 width="441.000000pt" height="64.000000pt" viewBox="0 0 441.000000 64.000000"
 preserveAspectRatio="xMidYMid meet">

<g transform="translate(0.000000,64.000000) scale(0.100000,-0.100000)"
fill="#30a12a" stroke="none">
<path d="M272 558 c-13 -7 -35 -38 -51 -72 -103 -217 -171 -370 -171 -385 0
-27 21 -41 60 -41 41 0 62 18 77 65 l10 30 125 3 126 3 17 -43 c20 -51 29 -58
77 -58 48 0 61 21 43 69 -12 33 -131 303 -169 383 -25 53 -87 73 -144 46z m97
-201 c22 -52 37 -98 33 -101 -6 -7 -162 -8 -162 -1 0 2 14 39 31 82 17 43 35
89 40 102 5 13 12 22 14 19 3 -3 23 -48 44 -101z"/>
<path d="M818 560 c-81 -21 -169 -100 -188 -170 -36 -129 17 -248 138 -307 51
-25 68 -28 152 -28 106 1 144 13 204 65 50 44 76 98 76 158 0 68 -12 76 -129
80 -105 3 -144 -8 -149 -45 -5 -36 23 -53 90 -53 l60 0 -7 -27 c-10 -42 -33
-62 -91 -79 -91 -26 -171 4 -204 79 -26 56 -25 113 3 161 48 85 149 105 266
52 59 -26 67 -28 90 -15 52 30 32 76 -49 112 -51 23 -200 32 -262 17z"/>
<path d="M1928 559 c-80 -19 -169 -98 -188 -169 -24 -87 -7 -176 45 -238 121
-140 401 -130 499 18 121 183 -21 403 -258 399 -34 -1 -78 -5 -98 -10z m184
-103 c35 -17 70 -67 82 -119 17 -73 -46 -171 -121 -188 -48 -10 -110 0 -148
25 -34 22 -65 87 -65 136 0 42 27 107 54 129 49 41 132 48 198 17z"/>
<path d="M3432 552 c-225 -81 -243 -368 -29 -471 148 -72 421 -1 327 84 -19
17 -25 18 -68 5 -73 -23 -174 -20 -209 6 -86 65 -87 203 -2 266 36 27 99 33
181 18 81 -16 103 -8 103 36 0 24 -7 32 -40 49 -58 28 -193 32 -263 7z"/>
<path d="M3842 560 l-22 -9 2 -238 3 -238 28 -13 c22 -11 32 -11 55 0 26 13
27 17 32 108 l5 95 138 3 137 3 0 -88 c0 -48 4 -93 8 -100 15 -23 62 -34 90
-20 l27 12 3 230 c2 225 2 230 -19 248 -28 23 -64 22 -89 -3 -17 -17 -20 -33
-20 -105 l0 -85 -140 0 -140 0 0 89 c0 82 -2 91 -22 105 -25 18 -42 19 -76 6z"/>
<path d="M1276 544 c-14 -13 -16 -48 -16 -230 0 -129 4 -223 10 -235 8 -14 21
-19 55 -19 24 0 47 6 52 13 4 6 10 52 13 100 l5 88 105 -100 c99 -95 107 -101
144 -98 27 1 43 9 53 24 14 21 13 25 -18 56 -19 18 -59 53 -89 79 l-54 46 43
12 c90 24 128 71 117 147 -8 60 -29 88 -86 112 -41 18 -69 21 -184 21 -109 0
-138 -3 -150 -16z m275 -103 c25 -31 24 -47 -6 -76 -21 -22 -33 -25 -90 -25
l-65 0 0 66 0 66 71 -4 c60 -3 74 -8 90 -27z"/>
<path d="M2412 548 c-7 -7 -12 -21 -12 -33 0 -35 20 -45 87 -45 l63 0 0 -188
c0 -213 3 -224 63 -224 66 0 67 2 67 218 l0 193 66 3 c54 2 69 7 80 23 12 18
11 24 -2 43 -15 21 -21 22 -208 22 -136 0 -195 -3 -204 -12z"/>
<path d="M2886 544 c-14 -13 -16 -49 -16 -234 0 -185 2 -221 16 -234 13 -13
41 -16 155 -16 149 0 179 7 179 43 0 40 -18 47 -122 47 l-98 0 0 55 0 55 69 0
c114 0 158 27 126 76 -14 22 -22 24 -105 24 l-90 0 0 55 0 55 93 0 c98 0 117
7 117 45 0 40 -17 45 -166 45 -116 0 -145 -3 -158 -16z"/>
</g>
</svg>
