<?xml version="1.0" standalone="no"?>
<!DOCTYPE svg PUBLIC "-//W3C//DTD SVG 20010904//EN"
 "http://www.w3.org/TR/2001/REC-SVG-20010904/DTD/svg10.dtd">
<svg version="1.0" xmlns="http://www.w3.org/2000/svg"
 width="249.000000pt" height="197.000000pt" viewBox="0 0 249.000000 197.000000"
 preserveAspectRatio="xMidYMid meet">

<g transform="translate(0.000000,197.000000) scale(0.100000,-0.100000)"
fill="#000000" stroke="none">
<path d="M845 813 c-16 -2 -67 -13 -112 -23 -140 -33 -213 -41 -349 -41 -120
0 -259 16 -342 40 l-32 10 42 -62 c53 -77 198 -225 258 -262 141 -89 245 -118
393 -113 53 2 97 2 97 0 0 -1 -31 -65 -70 -142 -38 -77 -70 -141 -70 -142 0
-2 93 -2 207 0 178 2 211 5 230 20 12 9 56 86 97 170 50 101 81 152 92 152 30
0 170 -52 219 -82 28 -16 65 -44 82 -61 18 -17 36 -28 39 -24 7 7 -68 151
-122 234 -21 32 -75 94 -119 139 -64 64 -98 89 -165 122 -121 59 -252 82 -375
65z"/>
<path d="M1923 787 c-85 -32 -167 -129 -223 -266 -28 -70 -30 -81 -30 -213 0
-224 14 -238 239 -238 l141 0 0 240 0 240 59 0 c67 0 97 9 156 48 54 35 157
164 143 178 -3 2 -20 -1 -39 -6 -55 -16 -170 -11 -254 10 -87 22 -144 24 -192
7z"/>
</g>
</svg>
